<svg viewBox="0 0 364 51" xmlns="http://www.w3.org/2000/svg"><g fill="#004d40" fill-rule="evenodd"><path d="M39.243.903c.002.126.006.249.006.372v32.683c0 4.106-1.343 7.731-3.895 10.911-2.023 2.52-4.555 4.402-7.367 5.932a3.25 3.274 0 0 1-.416.197c.514-.383 1.037-.758 1.543-1.152 2.052-1.593 3.875-3.406 5.278-5.615 1.292-2.035 2.088-4.254 2.458-6.634.234-1.507.308-3.022.308-4.543V2.1H0c.082-.078.118-.119.162-.151.406-.295.816-.586 1.22-.88.068-.048.124-.111.185-.167h37.677"/><path d="M21.067 25.526c-.185-.023-.408-.033-.626-.077-.82-.17-1.343-.783-1.374-1.637a5.13 5.167 0 0 1 .08-1.062c.165-.959.83-1.16 1.642-1.042.122.017.24.057.355.1.296.114.59.133.902.053.402-.104.766 0 1.11.243.415.297.403.71.326 1.13-.072.393-.204.776-.308 1.162-.187.697-.69.99-1.356 1.067-.236.026-.474.04-.75.063m9.186-4.968c-.267.022-.536.046-.805.065-.793.057-1.287-.405-1.644-1.032-.322-.571-.141-1.125.223-1.604.44-.583 1.009-.88 1.77-.743.215.04.453-.05.679-.09.173-.032.342-.093.515-.117.49-.071.866.12 1.16.513.577.77.555 1.537-.08 2.259-.516.586-.966.776-1.818.749m-.093 8.84c-.201.034-.409.048-.606.103a.938.944 0 0 1-.733-.08c-.79-.43-1.167-1.142-1.294-2.002a3.69 3.715 0 0 1-.004-.828c.039-.482.636-.963 1.148-.802.53.167 1.031.059 1.532-.12.193-.069.395-.125.597-.17.231-.05.418.047.572.222.344.393.445.868.397 1.365a10.02 10.091 0 0 1-.224 1.301c-.161.691-.685 1.075-1.384 1.01m-4.33 18.255c-.85-.057-1.706-.065-2.545-.188-.653-.094-1.143-.551-1.57-1.043-.73-.837-1.125-1.814-1.23-2.923-.166-1.729-.324-3.459-.292-5.198.015-.837.08-1.672.105-2.51.012-.408-.054-.824 0-1.226.034-.256.174-.536.351-.73a29.343 29.55 0 0 1 1.854-1.915c.549-.506 1.162-.941 1.757-1.395.403-.309.84-.577 1.135-1.01.085.425-.054.772-.413 1.058-.506.403-1.05.77-1.506 1.226-.689.685-1.314 1.434-1.969 2.154-.395.439-.47.98-.483 1.537-.034 1.448-.093 2.898-.076 4.347.017 1.473.089 2.946.397 4.393.136.648.356 1.267.748 1.81.581.808 1.426 1.15 2.354 1.33.46.09.924.146 1.386.218 0 .022-.003.043-.004.065M13.78 29.367c.015-.89.136-1.45.654-1.846a1.023 1.03 0 0 1 .83-.183c.527.091 1.056.183 1.586.265.51.08.919.46 1.019.975.102.526.14 1.054.004 1.585a1.024 1.031 0 0 1-.791.791c-.906.226-1.774.081-2.583-.362a1.342 1.352 0 0 1-.719-1.225m12.13-17.503c-.005 1.112-.616 1.781-1.734 1.926a3.42 3.444 0 0 1-1.676-.208c-.816-.313-.98-.714-.83-1.54a3.312 3.312 0 0 1 .667-1.44c.363-.468.763-.575 1.301-.347.18.077.349.125.554.074.77-.195 1.681.505 1.719 1.303.003.077 0 .155 0 .232m-13.885 9.464c.31.045.628.061.929.142 1.195.321 1.602 1.77.779 2.737-.695.819-1.578.955-2.556.68-.885-.25-1.008-.535-1.169-1.488-.052-.313-.034-.645-.004-.965.035-.392.251-.673.62-.822a4.082 4.11 0 0 1 1.401-.284m1.578 26.311c.31-.054.886-.141 1.455-.259 1.423-.293 2.355-1.157 2.727-2.562.206-.782.334-1.592.422-2.398.19-1.782.16-3.576.136-5.368-.012-.69-.034-1.379-.043-2.069-.01-.87-.352-1.591-.956-2.196-.125-.126-.259-.242-.415-.39.244-.084.42-.005.583.084a2.932 2.932 0 0 1 1.294 1.404c.058.13.19.225.28.343.068.093.172.198.173.299.003.245-.046.49-.07.736-.035.353-.097.706-.095 1.059.008 1.1.098 2.203.051 3.3-.064 1.507-.136 3.025-.368 4.514-.235 1.5-1.036 2.7-2.483 3.323-.321.14-.705.157-1.063.173-.63.027-1.261.007-1.628.007m-2.205-30.96c-.002.655-.204 1.219-.76 1.609-.249.176-.519.274-.844.209-.2-.042-.414-.014-.622-.008-.521.015-.926-.192-1.21-.631-.381-.592-.564-1.24-.503-1.944.064-.718.601-1.074 1.39-.982.271.033.557-.03.835-.06.083-.01.159-.053.241-.076.529-.148.924.021 1.176.51.22.428.287.894.297 1.372m7.91 1.906c-.002.842-.402 1.39-1.202 1.635-.703.214-1.384.144-2.042-.165a1.09 1.098 0 0 1-.62-.736c-.156-.564-.201-1.133-.073-1.701.168-.74.737-1.074 1.466-.865.414.12.813.191 1.243.062.258-.078.475.1.654.274.416.409.578.921.573 1.496m-4.244-2.606c-.174.602-.335 1.214-.529 1.816a3.977 4.005 0 0 1-1.524 2.075c-.333.238-.71.376-1.133.258-.507-.14-.765-.567-.553-1.051.148-.338.38-.657.632-.927.815-.87 1.732-1.607 2.84-2.075.057-.024.112-.049.17-.07.043-.014.087-.024.097-.026m2.857 8.094c-.431-.488-.953-.582-1.52-.549-.756.04-1.475-.405-1.645-1.279-.122-.624-.382-1.222-.58-1.833-.024-.073-.052-.144-.089-.242.882.217 1.766.367 2.479.954.719.594 1.05 1.415 1.266 2.294.041.164.06.335.088.502.005.031 0 .062 0 .153m5.186 2.48c.022-.544.252-1.131.968-1.42.013-.006.028-.011.042-.02.508-.302.669-.264 1.028.208.382.506.7 1.042.584 1.704-.075.422-.221.835-.354 1.245-.17.525-.181.53-.704.348a3.71 3.737 0 0 1-.691-.314c-.605-.363-.875-.868-.873-1.752m-4.903-11.083c-.88-.483-1.638-.982-2.175-1.753-.317-.459-.49-.96-.45-1.53.014-.194.084-.297.287-.35 1.407-.377 2.781.865 2.597 2.371-.051.41-.165.81-.259 1.262M16.12 6.05c.502.19.82.519 1.02.963.282.619.29 1.276.22 1.935a5.831 5.872 0 0 1-.497 1.784c-.548-.53-1.193-.92-1.302-1.767-.098-.774.089-1.489.316-2.206.071-.227.154-.45.243-.707m2.452 1.177c.469.227.832.566 1.031 1.03.165.376.278.787.34 1.195.117.756.18 1.521.266 2.281.003.03.003.057-.043.143-.278-.2-.58-.371-.828-.605-.59-.554-1.114-1.173-1.279-1.998-.15-.746.052-1.424.513-2.046M6.066 14.703c.13-1.236.899-2.256 1.923-2.535.691-.188 1.343-.13 1.877.426.209.217.304.484.331.774.03.312-.127.489-.434.502a1.124 1.132 0 0 1-.343-.032c-.932-.264-1.778.003-2.597.424-.251.131-.492.286-.757.44m4.936-6.135c1.318.137 2.564.34 3.498 1.355.329.356.502.79.523 1.313-.077-.027-.134-.039-.182-.064a2.798 2.818 0 0 0-1.403-.308 4.15 4.18 0 0 1-.98-.105 1.066 1.073 0 0 1-.498-.27c-.523-.515-.748-1.19-.958-1.921m11.903-1.73c.315.468.574.917.48 1.485-.053.314-.221.56-.443.772a2.807 2.807 0 0 1-.446.366c-.613.39-1.035.94-1.35 1.587-.023.047-.052.092-.079.14-.466-.528-.64-1.747-.095-2.375.515-.593 1.08-1.144 1.626-1.71.085-.088.186-.16.306-.265m-3.017 10.511c.24-1.35 1.904-2.748 3.851-2.745-.02.204-.017.41-.062.603-.163.689-.638 1.126-1.214 1.479-.506.31-1.072.416-1.642.506-.303.048-.604.101-.933.157M9.742 21.074c-.146.46-.27.842-.387 1.226-.175.574-.594.851-1.147.94-.434.07-.876.074-1.305.155-.48.092-.95.236-1.424.357.02-.038.045-.109.09-.163.423-.5.817-1.034 1.29-1.483.271-.258.66-.426 1.025-.547.588-.194 1.199-.318 1.858-.486m10.61 9.744c-.038-1.11-.028-2.148.283-3.151.101-.326.285-.632.467-.925.084-.135.242-.24.387-.32.48-.256.675-.155.779.373.09.457.083.916-.084 1.352-.389 1.017-1.058 1.842-1.832 2.671m4.316-11.501c.644.391 1.31.5 1.97.646.548.12.899.517 1.16.996.243.45.321.94.34 1.483-.587-.52-1.266-.696-1.985-.798-.776-.112-1.286-.698-1.415-1.565-.035-.233-.045-.47-.07-.762m5.767-8.926c-.17.22-.346.426-.497.648a10.675 10.75 0 0 0-.59.94c-.285.535-.98.955-1.471.84-.454-.105-.69-.443-.808-.868-.104-.375.023-.665.321-.92.597-.518 1.277-.71 2.051-.644.32.027.643.004.994.004m-5.677 11.89c.389.29.85.275 1.283.366.24.052.48.098.723.145.307.06.48.256.547.556.113.52-.012 1.017-.145 1.51-.08.302-.19.597-.309.961l-.153-.36c-.145-.334-.383-.571-.675-.799a10.355 10.428 0 0 1-1.27-1.171c-.303-.327-.273-.762-.001-1.207M8.67 9.218c.764-.208 1.446.003 2.01.502.702.62.674 1.475.617 2.34-.073-.004-.128.005-.174-.01-.5-.179-1.001-.343-1.489-.548-.347-.144-.549-.43-.613-.813a14.395 14.496 0 0 0-.182-.886c-.042-.187-.105-.368-.17-.585m24.92 12.285c-.728.377-1.393.712-2.049 1.065-.89.48-1.7.196-2.341-.5-.124-.138-.186-.327-.287-.51.418-.024.787-.027 1.15-.073a1.44 1.45 0 0 0 .586-.19c.5-.318 1.035-.348 1.578-.22.453.106.889.278 1.363.428m-5.624-5.117c-.416.457-.675.99-.923 1.534a4.835 4.869 0 0 1-.394.707c-.17.255-.431.396-.736.338a3.011 3.033 0 0 1-.823-.266c-.331-.172-.413-.475-.28-.835a1.621 1.633 0 0 1 .662-.839c.76-.48 1.619-.582 2.494-.64"/><path d="M23.552 33.936c.17-1 .38-1.957 1.174-2.643a1.69 1.69 0 0 1 .676-.328c.55-.138.896.238.78.799-.243 1.17-1.03 1.78-2.11 2.091-.132.04-.269.063-.404.092-.02.004-.045-.004-.116-.012m-10.559-6.299c-.238.75-.077 1.475-.017 2.192.057.674-.179 1.14-.751 1.456-.22.121-.446.234-.716.376.023-.14.051-.22.049-.3-.007-.305.03-.626-.048-.914-.186-.68-.096-1.319.176-1.945.202-.462.556-.753 1.055-.842.073-.014.147-.014.253-.023m5.012-.606c-.939-.231-1.819-.478-2.367-1.32-.29-.446-.248-.913-.019-1.37.029-.054.134-.097.202-.097 1.13.005 1.728.415 2.046 1.724.08.335.09.687.138 1.062m-12.75-6.45l.385-.346c.463-.418.954-.787 1.578-.92.544-.117 1.086-.027 1.627.043.389.05.778.099 1.235.205-.068.04-.138.077-.204.12-.44.3-.866.618-1.32.89-.436.262-.933.229-1.417.182-.45-.043-.896-.119-1.346-.159-.161-.016-.33.03-.493.046l-.046-.06m7.1 5.536c-.406.527-.8 1.04-1.197 1.553-.118.152-.242.3-.363.451-.675.843-1.557.964-2.551.75.015-.034.018-.06.032-.074.498-.506 1.003-1.004 1.493-1.517.555-.583 1.171-1.057 1.996-1.16.201-.024.409-.003.59-.003m6.4 3.785c-.055-.857-.124-1.727-.163-2.598a3.65 3.677 0 0 1 .088-.92c.091-.424.308-.618.61-.615.448.003.866.293.94.68.031.17.037.359 0 .527a6.676 6.723 0 0 1-1.475 2.926M30.37 12.846c-.195.84-.476 1.57-1.115 2.097a1.69 1.701 0 0 1-1.056.397c-.513.016-1.023.091-1.532.14 0-.515.509-1.144 1.12-1.397a54.185 54.185 0 0 0 1.922-.844c.214-.098.408-.24.66-.393m-14.591 2.277c-.408-.169-.821-.347-1.24-.514-.789-.316-1.307-.863-1.417-1.729-.027-.228.029-.478.096-.702.086-.284.313-.37.563-.212.212.135.406.306.578.49.538.572 1.233 1.905 1.42 2.667m8.498-5.935c.788-.97 2.39-1.083 3.741-.348-.386.548-.75 1.11-1.313 1.495-.183.128-.363.112-.507-.075-.08-.103-.163-.205-.23-.317-.383-.628-.92-.915-1.69-.755m8.6 15.78c-.854-.136-1.723-.1-2.531-.53-.514-.274-1.102-.408-1.644-.6.526-.372 1.152-.627 1.853-.523.788.117 1.508.429 2.097.994.175.169.31.365.227.657m-27.096.945c.293-.48.556-.902.812-1.33.284-.47.919-.765 1.451-.666.177.033.326.135.311.318-.037.434-.048.889-.184 1.295-.134.406-.565.495-.946.493-.488 0-.975-.07-1.445-.11m13.612-10.283c.349-.51.524-1.074.517-1.685-.007-.593-.172-1.153-.48-1.74.692.31 1.325.578 1.832 1.074.246.237.242.518.136.814-.227.641-.71 1.033-1.289 1.324-.216.108-.451.18-.678.267l-.038-.055m8.23 15.917c-.068-.032-.114-.045-.148-.07-.818-.595-1.42-1.335-1.462-2.4-.01-.273.097-.555.17-.828.042-.16.155-.185.306-.103.35.192.6.475.783.825.366.698.392 1.453.37 2.217-.003.107-.011.215-.02.36m-11.69 2.267c-.504-.199-.98-.367-1.44-.57-.676-.302-.967-.898-1.113-1.583-.01-.048.052-.153.096-.165.297-.07.598-.164.898-.167.41-.003.712.226.863.622.231.602.454 1.21.696 1.863m8.102-16.458c-.052 1.157-.13 2.295-.742 3.314-.285.472-.516.513-.953.177-.499-.386-.528-.598-.143-1.113.102-.137.204-.278.335-.383.603-.5.99-1.158 1.365-1.828.026-.047.052-.094.082-.14.005-.011.022-.012.056-.027m-5.124 3.663c.814-1.334 1.882-2.391 3.302-3.062.012.02.027.034.024.042-.269.597-.498 1.22-.825 1.781-.162.281-.477.517-.776.66-.543.26-1.126.434-1.693.644l-.032-.064m-6.99-8.59c.045.168.085.338.135.505.144.478.345.92.706 1.286.416.422.722 1.012.845 1.498-1.263.145-2.483-.611-2.118-2.263.079-.357.24-.693.362-1.04.023.004.046.01.07.013m14.715.702c-.278.834-.475 1.63-.906 2.334a2.16 2.16 0 0 1-.218.298c-.19.217-.576.304-.826.197-.209-.092-.32-.354-.301-.676.02-.328.174-.59.385-.822.507-.567 1.146-.947 1.866-1.33m-8.374 18.517c.193.088.4.149.571.266.28.19.536.415.802.626.287.227.36.234.63-.023.495-.474.897-1.008 1.122-1.675.113-.337.308-.646.466-.968l.11.034c-.022.26-.04.522-.073.781-.13 1.034-.736 1.796-1.438 2.498-.175.176-.374.199-.61.09-.602-.276-1.365-1-1.615-1.564l.035-.064m14.726-16.002c-.905.345-1.766.674-2.713.616-.068-.004-.136-.018-.204-.03l-.962-.178c.088-.124.177-.288.302-.416.258-.264.596-.385.952-.424.898-.1 1.747.12 2.625.432M13.728 6.354c.356.417.721.825 1.066 1.25.391.48.163 1.115-.434 1.25a.576.58 0 0 1-.614-.32c-.094-.224-.178-.473-.178-.71-.002-.493.056-.982.089-1.473l.071.003m6.598 2.022a2.448 2.465 0 0 1-.113-1.208c.046-.324.206-.593.479-.791.25-.18.483-.38.722-.569a1.95 1.964 0 0 1-1.088 2.568M6.634 16.74c.05.293.064.568.15.818.088.25.247.473.405.764-.266-.012-.517.015-.744-.046-.54-.139-1.078-.237-1.694-.167.494-.713 1.044-1.246 1.883-1.37m8.219 7.499c.055.98-.447 2.458-1.554 2.713.015-.979.72-2.22 1.554-2.712M8.81 26.806c.05-.71-.193-1.479.247-2.167.605.077.967.454.975.999a.687.692 0 0 1-.374.664c-.287.16-.566.335-.85.503m15.413 2.73c-.166.32-.707.75-1.243 1.025-.322-.765-.37-1.55-.22-2.4.091.453.16.864.254 1.27.13.573.27.629.793.342.14-.076.278-.16.416-.238m34.366-2.82c2.653 4.72 5.677 9.241 9.391 13.701-1.58 0-2.893.032-4.203-.03-.227-.012-.48-.394-.64-.655-2.377-3.848-4.76-7.692-7.088-11.57-.397-.658-.752-1.01-1.561-.894-.721.105-1.47.069-2.202.03-.633-.033-.832.206-.82.834.072 3.764.113 7.528.162 11.292.005.288 0 .577 0 .943h-3.45c-.197-9.524.622-19.034-.612-28.646 1.291 0 2.596-.011 3.9 0 2.415.023 4.842-.499 7.245.174 2.652.742 4.85 2.054 5.771 4.84.992 3.006-.03 6.135-2.633 8.043-.998.73-2.127 1.273-3.26 1.937m-7.114-7.118c0 1.414.026 2.829-.012 4.242-.016.594.176.92.766.957 2.68.17 5.239-.207 7.4-1.96 2.998-2.431 2.357-6.505-1.217-7.913-2.052-.809-4.172-.791-6.315-.531-.551.067-.635.39-.628.868.019 1.445.006 2.892.006 4.337m41 20.97h-3.539c.055-.787.146-1.542.152-2.299.028-3.605.03-7.21.049-10.813.002-.51.034-.942-.711-.936-4.475.029-8.95.023-13.425.03-.06 0-.12.035-.27.08V40.57h-3.427c-.274-9.506.622-19.015-.612-28.553h3.996v11.795c.353.017.66.043.97.043 4.156.004 8.311-.017 12.466.02.792.007 1.032-.217 1.029-1.025-.023-3.443.064-6.889-.755-10.27-.037-.148-.006-.314-.006-.578h4.082v28.563m5.178-3.537c1.454.263 2.885.68 4.33.745 1.734.076 3.544.11 5.208-.3 2.984-.732 4-3.64 2.248-6.207-.762-1.12-1.809-2.08-2.858-2.953-1.77-1.475-3.7-2.756-5.466-4.24-1.897-1.593-3.39-3.491-3.668-6.115-.27-2.555.78-4.664 3.047-5.943 2.378-1.342 4.95-1.34 7.556-1.079.063.007.124.03.187.041 2.763.48 2.793.525 2.36 3.311-1.837-.198-3.662-.492-5.495-.553-.888-.03-1.844.25-2.676.612-1.808.784-2.528 2.696-1.527 4.407.679 1.162 1.648 2.215 2.677 3.088 1.78 1.513 3.74 2.81 5.563 4.27 1.85 1.487 3.424 3.232 4.005 5.629 1.035 4.286-1.35 7.858-5.85 8.782-3.069.63-6.107.213-9.124-.416-.195-.04-.484-.291-.494-.458-.05-.854-.023-1.714-.023-2.62"/><g><path d="M147.287 31.714c.096-.72.096-1.555.096-2.845V21.7c0-1.82-.114-2.22-.378-3.492h1.886c-.096.97-.096 1.994-.096 3.492v7.17c0 .987 0 2.124.096 2.845h-1.604m5.143 0c.151-1.253.189-2.446.189-3.149v-2.05c0-1.214-.17-2.998-.698-4.438l1.319-.134c.17.474.283.93.376 1.347.624-.681 1.244-1.535 2.77-1.535 1.958 0 3.484.947 3.484 3.774v3.034c0 .93.057 2.125.189 3.15h-1.32c-.093-1.253-.093-2.448-.093-3.15v-2.54c0-1.12-.057-3.129-2.373-3.129-1.939 0-2.43 1.67-2.43 3.129v2.541c0 .93.057 1.727.188 3.15h-1.6m14.393-8.63c-.527-.095-1.074-.19-1.621-.19-1.524 0-1.958.626-1.958 1.176 0 .797 1.073 1.346 2.185 2.143 1.11.797 2.486 1.63 2.486 3.244 0 2.142-2.016 2.578-3.165 2.578-.81 0-1.619-.207-2.392-.436v-1.232c.773.229 1.545.532 2.355.532 1.432 0 1.978-.777 1.978-1.405 0-1.005-1.093-1.687-2.223-2.428-1.224-.796-2.449-1.593-2.449-3.015 0-1.784 2.016-2.295 3.107-2.295.567 0 1.15.075 1.697.19v1.138m3.014 12.954a48.765 49.109 0 0 0 .095-3.281v-7.53c0-.853-.209-1.972-.472-3.15l1.225-.132c.113.4.207.911.264 1.594h.038c.488-.797 1.091-1.783 2.918-1.783 2.318 0 4.409 1.878 4.409 5.502 0 2.864-1.903 4.778-4.088 4.778-1.714 0-2.693-.986-3.032-1.592h-.039v1.042c0 1.214.188 2.978.377 4.362l-1.694.19m4.238-5.139c2.258 0 2.917-2.296 2.917-3.642 0-2.731-1.449-4.363-3.163-4.363-2.317 0-2.674 2.504-2.674 3.908 0 2.883 1.168 4.097 2.92 4.097m6.688-11.306c0-.7 0-1.44-.113-2.104l1.451-.114v2.104zm.075 12.121c.15-1.252.188-2.446.188-3.149v-2.05c0-1.175-.112-2.881-.376-4.305l1.695-.265a94.295 94.96 0 0 0-.094 4.57v2.05c0 .929.056 1.727.188 3.15h-1.6zm4.654 0c.151-1.253.188-2.446.188-3.149v-2.05c0-1.214-.17-2.978-.697-4.438l1.319-.134c.15.532.282 1.045.376 1.537 1.055-1.725 2.412-1.725 3.466-1.725v1.138c-1.13.02-3.24.17-3.24 2.77v2.9c0 .93.056 1.727.19 3.15h-1.602m6.781-12.12c0-.7 0-1.44-.113-2.104l1.451-.114v2.104zm.075 12.121c.151-1.252.189-2.446.189-3.149v-2.05c0-1.175-.113-2.881-.377-4.305l1.695-.265a92.85 93.505 0 0 0-.094 4.57v2.05c0 .929.057 1.727.188 3.15zm4.73 0c.15-1.253.188-2.446.188-3.149v-2.05c0-1.214-.17-2.998-.698-4.438l1.319-.134c.169.474.282.93.377 1.347.622-.681 1.243-1.535 2.767-1.535 1.96 0 3.486.947 3.486 3.774v3.034c0 .93.056 2.125.189 3.15h-1.32c-.093-1.253-.093-2.448-.093-3.15v-2.54c0-1.12-.057-3.129-2.373-3.129-1.94 0-2.43 1.67-2.43 3.129v2.541c0 .93.057 1.727.188 3.15h-1.6m18.517-.493c0 3.262-1.716 5.026-4.917 5.026-.867 0-1.714-.209-2.543-.456v-1.138c.811.229 1.66.456 2.506.456 2.203 0 3.73-1.214 3.73-3.3v-1.594h-.038c-.605.817-1.244 1.82-3.108 1.82-2.392 0-4.407-1.82-4.407-5.33 0-1.63.884-4.95 4.312-4.95 1.846 0 2.713.891 3.315 1.443.076-.38.188-.874.302-1.253h1.223c-.187 1.082-.375 1.821-.375 3.434v5.842m-4.295-.322c2.241 0 3.07-2.09 3.07-4.42 0-1.518-.433-3.585-3.07-3.585-2.542 0-3.165 2.522-3.165 3.811 0 2.181 1.037 4.194 3.164 4.194m18.99.948c-.66.095-1.282.19-1.94.19-2.412 0-5.218-1.52-5.218-5.747 0-1.784 1.037-4.534 4.068-4.534 2.976 0 3.881 2.75 3.881 4.438 0 .171-.02.342-.02.513h-6.61c.113 1.308.527 4.192 4.031 4.192.601 0 1.206-.096 1.809-.19zm-.528-6.184c-.095-.89-.545-2.769-2.542-2.769-2.035 0-2.732 1.802-2.768 2.769zm5.125 6.241a47.54 47.876 0 0 0-3.333-9.694l1.411-.265c1.038 2.922 2.168 5.673 2.733 8.82h.036c.602-1.972 2.26-6.847 2.485-8.554l1.508-.266c-.584 1.707-2.805 8.517-3.182 9.77l-1.659.189m13.207-.057c-.66.095-1.28.19-1.94.19-2.41 0-5.217-1.52-5.217-5.747 0-1.784 1.036-4.534 4.067-4.534 2.976 0 3.88 2.75 3.88 4.438 0 .171-.017.342-.017.513h-6.612c.112 1.308.527 4.192 4.03 4.192.603 0 1.207-.096 1.809-.19zm-.529-6.184c-.093-.89-.545-2.769-2.542-2.769-2.035 0-2.73 1.802-2.768 2.769zm3.526 6.051c.15-1.253.187-2.446.187-3.149v-2.05c0-1.214-.17-2.978-.696-4.438l1.318-.134c.152.532.283 1.045.378 1.537 1.055-1.725 2.41-1.725 3.465-1.725v1.138c-1.131.02-3.24.17-3.24 2.77v2.9c0 .93.057 1.727.188 3.15h-1.6m9.57-.228l-2.45-6.145c-.432-1.005-1.167-2.313-1.657-3.129l1.507-.266a62.508 62.949 0 0 1 1.996 4.78l1.225 3.414h.036l.869-2.485c.714-1.952 1.298-3.51 1.674-5.444l1.507-.265c-.3.91-1.337 3.49-2.354 6.374l-1.374 3.906c-.528 1.499-.754 2.675-.943 3.813l-1.694.21 1.658-4.762m5.124-4.97c0-2.94 1.885-4.76 4.332-4.76 2.656 0 4.52 1.859 4.52 5.026 0 3.3-2.015 5.253-4.333 5.253-3.143 0-4.519-2.786-4.519-5.52m4.483 4.383c1.676 0 3.05-1.366 3.05-4.059 0-2.58-1.355-3.945-3.126-3.945-2.392 0-3.088 2.161-3.088 3.338 0 2.711 1.034 4.666 3.163 4.666m6.746.816c.151-1.253.189-2.446.189-3.149v-2.05c0-1.214-.17-2.998-.698-4.438l1.319-.134c.169.474.282.93.376 1.347.623-.681 1.244-1.535 2.767-1.535 1.961 0 3.487.947 3.487 3.774v3.034c0 .93.056 2.125.189 3.15h-1.319c-.094-1.253-.094-2.448-.094-3.15v-2.54c0-1.12-.057-3.129-2.373-3.129-1.941 0-2.431 1.67-2.431 3.129v2.541c0 .93.057 1.727.188 3.15h-1.6m16.823.133c-.66.095-1.282.19-1.941.19-2.41 0-5.216-1.52-5.216-5.747 0-1.784 1.035-4.534 4.067-4.534 2.976 0 3.88 2.75 3.88 4.438 0 .171-.018.342-.018.513h-6.611c.113 1.308.527 4.192 4.03 4.192.603 0 1.207-.096 1.809-.19zm-.529-6.184c-.094-.89-.545-2.769-2.542-2.769-2.034 0-2.732 1.802-2.768 2.769zm13.057 6.372c-1.808 0-3.373-.283-3.373-3.224v-5.69c-.77 0-1.13.04-1.732.095l.113-1.137h1.619c0-.475-.02-1.081-.095-1.612l1.433-.588a22.501 22.66 0 0 0-.112 2.2c.923 0 1.317-.038 1.978-.095l-.114 1.137h-1.863v5.538c0 1.916.619 2.24 2.146 2.24v1.136m.96-5.52c0-2.94 1.884-4.76 4.333-4.76 2.656 0 4.521 1.86 4.521 5.027 0 3.3-2.017 5.253-4.333 5.253-3.144 0-4.52-2.786-4.52-5.52m4.482 4.383c1.678 0 3.053-1.366 3.053-4.059 0-2.58-1.359-3.945-3.127-3.945-2.393 0-3.09 2.161-3.09 3.338 0 2.711 1.036 4.666 3.164 4.666m20.366.323c0 3.262-1.716 5.026-4.918 5.026-.866 0-1.714-.209-2.543-.456v-1.138c.811.229 1.658.456 2.506.456 2.203 0 3.73-1.214 3.73-3.3v-1.594h-.038c-.603.817-1.244 1.82-3.107 1.82-2.392 0-4.408-1.82-4.408-5.33 0-1.63.884-4.95 4.313-4.95 1.845 0 2.712.891 3.315 1.443.075-.38.188-.874.302-1.253h1.224c-.19 1.082-.376 1.821-.376 3.434v5.842m-4.296-.322c2.242 0 3.07-2.09 3.07-4.42 0-1.518-.433-3.585-3.07-3.585-2.542 0-3.163 2.522-3.163 3.811 0 2.181 1.035 4.194 3.163 4.194m6.99.815c.152-1.253.189-2.446.189-3.149v-2.05c0-1.214-.17-2.978-.696-4.438l1.317-.134c.151.532.284 1.045.377 1.537 1.055-1.725 2.411-1.725 3.466-1.725v1.138c-1.132.02-3.24.17-3.24 2.77v2.9c0 .93.056 1.727.189 3.15h-1.601m5.612-5.197c0-2.94 1.886-4.76 4.334-4.76 2.655 0 4.52 1.859 4.52 5.026 0 3.3-2.016 5.253-4.333 5.253-3.144 0-4.52-2.786-4.52-5.52m4.483 4.383c1.676 0 3.051-1.366 3.051-4.059 0-2.58-1.356-3.945-3.127-3.945-2.392 0-3.088 2.161-3.088 3.338 0 2.711 1.035 4.666 3.164 4.666m7.782 1.006c-.678-3.339-1.715-6.942-2.75-9.694l1.412-.265c.51 1.821 1.678 5.52 2.185 8.915h.038c.621-2.883 1.356-5.633 1.734-8.649l1.695-.266c.753 3.206 1.47 6.28 1.995 8.915h.039c1.393-5.594 1.619-6.79 1.92-8.649l1.413-.266c-.49 2.067-2.016 7.342-2.468 9.77l-1.79.189c-.3-1.48-1.298-5.785-1.863-8.479h-.038c-.434 2.922-1.526 7.228-1.732 8.29l-1.792.189"/></g></g></svg>